# xmcd
#
# Track frame offsets:
#	150
#	12257
#	23587
#	34717
#	47069
#	59067
#	70479
#	81025
#	92139
#	101899
#	112543
#	123005
#	134981
#	145380
#	155693
#	167036
#	177754
#	188676
#	198997
#	209784
#	220071
#	230829
#	240887
#	251680
#	261107
#	271880
#	281954
#
# Disc length: 3926 seconds
#
# Revision: 1
# Processed by: cddbd v1.5.2PL0 Copyright (c) Steve Scherf et al.
# Submitted via: audiograbber 1.83.01
#
DISCID=910f541b
DTITLE=Fats Domino - Birth Of The Fat Man
DYEAR=2003
DGENRE=R&B
TTITLE0=The Fat Man
TTITLE1=Detroit City Blues
TTITLE2=Hide Away Blues
TTITLE3=She's My Baby
TTITLE4=Brand New Baby
TTITLE5=Little Bee
TTITLE6=Boogie Woogie Baby
TTITLE7=Hey! Las Bas Boogie
TTITLE8=Every Night About This Time
TTITLE9=Korea Blues
TTITLE10=Careless Love
TTITLE11=Hey! Fat Man
TTITLE12=Tired Of Crying
TTITLE13=What's The Matter Baby
TTITLE14=Rockin' Chair
TTITLE15=Don't You Lie To Me
TTITLE16=Sometimes I Wonder
TTITLE17=Right From Wrong
TTITLE18=No, No Baby
TTITLE19=You Know I Miss You
TTITLE20=I'll Be Gone
TTITLE21=Goin' Home
TTITLE22=Reeling And Rocking
TTITLE23=How Long
TTITLE24=Dreaming
TTITLE25=Poor Poor Me
TTITLE26=Trust In Me
EXTD=
EXTT0=
EXTT1=
EXTT2=
EXTT3=
EXTT4=
EXTT5=
EXTT6=
EXTT7=
EXTT8=
EXTT9=
EXTT10=
EXTT11=
EXTT12=
EXTT13=
EXTT14=
EXTT15=
EXTT16=
EXTT17=
EXTT18=
EXTT19=
EXTT20=
EXTT21=
EXTT22=
EXTT23=
EXTT24=
EXTT25=
EXTT26=
PLAYORDER=
